# xmcd
#
# Track frame offsets: 
#        187
#        13347
#        26747
#        41377
#        52540
#        62872
#        77772
#        92290
#        101922
#        119982
#        130485
#        143422
#        157662
#        172542
#        185175
#        196062
#        211120
#        230675
#        243397
#
# Disc length: 3396 seconds
#
# Revision: 4
# Processed by: cddbd v1.5.2PL0 Copyright (c) Steve Scherf et al.
# Submitted via: ExactAudioCopy v1.0b4
#
DISCID=f60d4213
DTITLE=Various Artist - Country Greatest  CD 1
DYEAR=1995
DGENRE=Country
TTITLE0=Ray Charles - Crying Time
TTITLE1=Lynn Anderson - Rose Garden
TTITLE2=Don Gibson - I Can't Stop Loving You
TTITLE3=Pat Rogers - April Love
TTITLE4=Buck Owens - Rollin' In My Sweet Baby's Arms
TTITLE5=B. J. Thomas - Another Somebody Done Somebody Wrong Song
TTITLE6=Glen Campbell - Rhinestone Cowbow
TTITLE7=Dale and Grase - I'm Leaving It All Up To You
TTITLE8=Ricky Nelson - Garden Party
TTITLE9=The Everly Brothers - All I Have To Do Is Dream
TTITLE10=Kenny Rogers - Ruby, Don't Take Your Love To Town
TTITLE11=George Jones - Good Year For The Roses
TTITLE12=Anne Myrray - Both Sides Now
TTITLE13=Willie Nelson - Any Old Arms Won't Do
TTITLE14=Kris Kristofferson - Jesus Was A Capricorn
TTITLE15=The Bellamy Brothers - On A Summer Night
TTITLE16=Timi Yuro - Crazy
TTITLE17=Olivia Newton John - I Newver Knew Love
TTITLE18=Patsy Cline - Walking After Midnight
EXTD=ID3G: 2
EXTT0=Ray Charles\n
EXTT1=Lynn Anderson\n
EXTT2=Don Gibson\n
EXTT3=Pat Boone\n
EXTT4=Buck Owens\n
EXTT5=B.J. Thomas\n
EXTT6=Glen Cambell\n
EXTT7=Dale and Grace\n
EXTT8=Ricky Nelson\n
EXTT9=The Everly Brothers\n
EXTT10=Kenny Rogers
EXTT11=George Jones
EXTT12=Anne Murray
EXTT13=Willie Nelson
EXTT14=Kris Kristofferson
EXTT15=The Bellamy Brothers
EXTT16=Timi Yuro
EXTT17=Olivia Newton John
EXTT18=Patsy Cline
PLAYORDER=
